C:\Users\israe\Dropbox\PhDWork\ExperimentalData\subject1\100\P1S100W03_filtered35.mot
nRows=8
nColumns=28

name C:\Users\israe\Dropbox\PhDWork\ExperimentalData\subject1\100\P1S100W03_filtered35.mot
datacolumns 28
datarows 8
range 0.5870000000 0.5940000000
endheader
time	ground_force_1_vx	ground_force_1_vy	ground_force_1_vz	ground_force_1_px	ground_force_1_py	ground_force_1_pz	ground_moment_1_mx	ground_moment_1_my	ground_moment_1_mz	ground_force_2_vx	ground_force_2_vy	ground_force_2_vz	ground_force_2_px	ground_force_2_py	ground_force_2_pz	ground_moment_2_mx	ground_moment_2_my	ground_moment_2_mz	ground_force_3_vx	ground_force_3_vy	ground_force_3_vz	ground_force_3_px	ground_force_3_py	ground_force_3_pz	ground_moment_3_mx	ground_moment_3_my	ground_moment_3_mz
        0.5870000000	       -0.0000000000	        0.0000000000	        0.0000000000	        0.2000000000	        0.0000000000	       -0.9030000000	       -0.0000000000	       -0.0000000000	        0.0000000000	        0.0000222631	        0.0049520835	       -0.0010578990	        0.2000000000	        0.0000000000	       -0.3000000000	       -0.0010181109	       -0.0001740148	       -0.0003653621	      -37.4086772986	      713.2180155414	      -57.4839517039	        0.2000000000	       -0.0000000000	        0.3030000000	       20.4024568218	        6.4373006043	       48.6400237825	
        0.5880000000	       -0.0000000000	        0.0000000000	        0.0000000000	        0.2000000000	        0.0000000000	       -0.9030000000	       -0.0000000000	       -0.0000000000	        0.0000000000	       -0.0002362887	        0.0091862848	       -0.0021664754	        0.2000000000	        0.0000000000	       -0.3000000000	       -0.0017734551	       -0.0003182652	       -0.0005749478	      -37.5264862730	      713.7663319926	      -57.7610196362	        0.2000000000	       -0.0000000000	        0.3030000000	       20.8291723249	        6.4651519097	       48.7227332632	
        0.5890000000	       -0.0000000000	        0.0000000000	        0.0000000000	        0.2000000000	        0.0000000000	       -0.9030000000	       -0.0000000000	       -0.0000000000	        0.0000000000	       -0.0005954318	        0.0145768345	       -0.0035998384	        0.2000000000	        0.0000000000	       -0.3000000000	       -0.0027226418	       -0.0005014198	       -0.0008306664	      -37.6344680604	      714.3154122499	      -58.0458166205	        0.2000000000	       -0.0000000000	        0.3030000000	       21.2503123880	        6.4955081223	       48.8037754709	
        0.5900000000	        0.0000000000	        0.0000000000	       -0.0000000000	        0.2000000000	        0.0000000000	       -0.9030000000	       -0.0000000000	       -0.0000000000	        0.0000000000	       -0.0010696247	        0.0211733941	       -0.0053793885	        0.2000000000	        0.0000000000	       -0.3000000000	       -0.0038697895	       -0.0007249837	       -0.0011307441	      -37.7329199864	      714.8743611808	      -58.3420646609	        0.2000000000	       -0.0000000000	        0.3030000000	       21.6657557022	        6.5284092239	       48.8826661464	
        0.5910000000	        0.0000000000	        0.0000000000	       -0.0000000000	        0.2000000000	        0.0000000000	       -0.9030000000	       -0.0000000000	        0.0000000000	        0.0000000000	       -0.0016695466	        0.0289377627	       -0.0075046883	        0.2000000000	        0.0000000000	       -0.3000000000	       -0.0052026846	       -0.0009874427	       -0.0014684707	      -37.8223163557	      715.4493841278	      -58.6537439099	        0.2000000000	       -0.0000000000	        0.3030000000	       22.0755051824	        6.5639499987	       48.9587335571	
        0.5920000000	        0.0000000000	        0.0000000000	       -0.0000000000	        0.2000000000	        0.0000000000	       -0.9030000000	       -0.0000000000	        0.0000000000	        0.0000000000	       -0.0023993215	        0.0377058058	       -0.0099431635	        0.2000000000	        0.0000000000	       -0.3000000000	       -0.0066861772	       -0.0012829738	       -0.0018304824	      -37.9024609986	      716.0432345936	      -58.9838268251	        0.2000000000	       -0.0000000000	        0.3030000000	       22.4797780233	        6.6021953499	       49.0314246864	
        0.5930000000	        0.0000000000	        0.0000000000	       -0.0000000000	        0.2000000000	        0.0000000000	       -0.9030000000	       -0.0000000000	        0.0000000000	        0.0000000000	       -0.0032530345	        0.0471429898	       -0.0126178951	        0.2000000000	        0.0000000000	       -0.3000000000	       -0.0082545680	       -0.0015999429	       -0.0021948452	      -37.9721545590	      716.6559293688	      -59.3339080826	        0.2000000000	       -0.0000000000	        0.3030000000	       22.8789659319	        6.6429806356	       49.1004528103	
        0.5940000000	        0.0000000000	        0.0000000000	       -0.0000000000	        0.2000000000	        0.0000000000	       -0.9030000000	        0.0000000000	        0.0000000000	       -0.0000000000	       -0.0042105243	        0.0566945992	       -0.0153937286	        0.2000000000	        0.0000000000	       -0.3000000000	       -0.0098032118	       -0.0019192278	       -0.0025290235	      -38.0295013949	      717.2858537495	      -59.7048061934	        0.2000000000	       -0.0000000000	        0.3030000000	       23.2734768758	        6.6858030382	       49.1657393193	
